# xmcd CD database file
#
# Track frame offsets:
#	150
#	15298
#	41319
#	56657
#	69274
#	83988
#	118445
#	131797
#	162235
#	178492
#	190682
#	205826
#	278870
#	309250
#	323876
#
# Disc length: 4484 seconds
#
# Revision: 0
# Processed by: cddbd v1.5.2PL0 Copyright (c) Steve Scherf et al.
# Submitted via: CDex 1.70beta2
#
DISCID=d211820f
DTITLE=Various Artist - Club Jazz CD2
DYEAR=2010
DGENRE=Jazz
TTITLE0=Jamie Callum_Devil may care
TTITLE1=Victor Feldman_Crazy Chicken
TTITLE2=Louis Armstrong_La vie en rose
TTITLE3=Miles Davies_Generique
TTITLE4=Django Reinhardt_Minor Swing
TTITLE5=Teddy Wilson_Just you just me
TTITLE6=Frank Sinatra_Love is a tender trap
TTITLE7=Joseph Bonner_Triangle
TTITLE8=Oscar Peterson_East of the sun
TTITLE9=The Mills Brothers_Lazy Rider
TTITLE10=Glenn Miller_Moonlight Serenade
TTITLE11=Chet Baker_There will never be another you
TTITLE12=Dave Brubeck_Blue Rondo a la turk
TTITLE13=Fred Astaire_Lets call the whole thing off
TTITLE14=Dizzy Gillespie_Things to come
EXTD=YEAR: 2010
EXTT0=
EXTT1=
EXTT2=
EXTT3=
EXTT4=
EXTT5=
EXTT6=
EXTT7=
EXTT8=
EXTT9=
EXTT10=
EXTT11=
EXTT12=
EXTT13=
EXTT14=
PLAYORDER=
